<?xml version="1.0" encoding="iso-8859-1"?>
<!-- Generator: Adobe Illustrator 19.0.0, SVG Export Plug-In . SVG Version: 6.00 Build 0)  -->
<svg version="1.1" id="Capa_1" xmlns="http://www.w3.org/2000/svg" xmlns:xlink="http://www.w3.org/1999/xlink" x="0px" y="0px"
	 viewBox="0 0 298 298" style="enable-background:new 0 0 298 298;" xml:space="preserve">
<g>
	<path d="M290.333,107.5h-7.527c-14.244-23.924-40.392-40-70.241-40H84.102c-29.85,0-55.997,16.076-70.241,40H8.333
		c-4.418,0-8.333,3.582-8.333,8v66c0,4.418,3.915,8,8.333,8h4.95c14.106,24.473,40.557,41,70.818,41h32.41
		c2.028,0,3.98-0.77,5.462-2.154l25.77-24.08l25.77,24.079c1.481,1.385,3.434,2.155,5.462,2.155h33.59
		c30.262,0,56.712-16.527,70.818-41h6.95c4.418,0,7.667-3.582,7.667-8v-66C298,111.082,294.751,107.5,290.333,107.5z M262.225,149
		c0,27.294-22.277,49.5-49.66,49.5h-17.957c-2.36,0-4.601-1.042-6.12-2.849c-0.985-1.17-2.018-2.37-3.087-3.576
		c-9.322-10.51-22.005-22.575-37.46-22.575h-0.393c-15.458,0-28.139,12.064-37.46,22.575c-1.069,1.206-2.103,2.406-3.088,3.576
		c-1.52,1.807-3.76,2.849-6.12,2.849H84.102c-27.383,0-49.66-22.206-49.66-49.5s22.277-49.5,49.66-49.5h128.463
		C239.947,99.5,262.225,121.706,262.225,149z"/>
</g>
<g>
</g>
<g>
</g>
<g>
</g>
<g>
</g>
<g>
</g>
<g>
</g>
<g>
</g>
<g>
</g>
<g>
</g>
<g>
</g>
<g>
</g>
<g>
</g>
<g>
</g>
<g>
</g>
<g>
</g>
</svg>
